<?xml version="1.0" standalone="no"?><!DOCTYPE svg PUBLIC "-//W3C//DTD SVG 1.1//EN" "http://www.w3.org/Graphics/SVG/1.1/DTD/svg11.dtd"><svg class="icon" style="width: 5em; height: 5em;vertical-align: middle;fill: #B7B7B7;overflow: hidden;" viewBox="0 0 1024 1024" version="1.1" xmlns="http://www.w3.org/2000/svg"><path d="M930.133333 354.133333C921.6 345.6 908.8 341.333333 900.266667 341.333333l-238.933333 0 55.466667-209.066667c4.266667-12.8 0-25.6-8.533333-34.133333C704 89.6 691.2 85.333333 678.4 85.333333l-132.266667 0c-12.8 0-29.866667 8.533333-34.133333 21.333333L384 341.333333 328.533333 341.333333C315.733333 315.733333 290.133333 298.666667 256 298.666667L128 298.666667C81.066667 298.666667 42.666667 337.066667 42.666667 384l0 469.333333c0 46.933333 38.4 85.333333 85.333333 85.333333l213.333333 0 0-42.666667 0-38.4L341.333333 384l68.266667 0 140.8-256 123.733333 0-68.266667 256L896 384l-81.066667 512-366.933333 0c-12.8 0-21.333333 8.533333-21.333333 21.333333 0 12.8 8.533333 21.333333 21.333333 21.333333l366.933333 0c21.333333 0 34.133333-12.8 38.4-34.133333L938.666667 388.266667C938.666667 375.466667 938.666667 362.666667 930.133333 354.133333zM298.666667 896 128 896c-25.6 0-42.666667-17.066667-42.666667-42.666667L85.333333 384c0-25.6 17.066667-42.666667 42.666667-42.666667l128 0c25.6 0 42.666667 17.066667 42.666667 42.666667L298.666667 896zM234.666667 789.333333c0 25.6-17.066667 42.666667-42.666667 42.666667s-42.666667-17.066667-42.666667-42.666667c0-25.6 17.066667-42.666667 42.666667-42.666667S234.666667 763.733333 234.666667 789.333333z" /></svg>